<mxfile host="65bd71144e">
    <diagram id="xH-T24poy5hYIG6f6IRd" name="Page-1">
        <mxGraphModel dx="2503" dy="514" grid="0" gridSize="10" guides="1" tooltips="1" connect="1" arrows="1" fold="1" page="0" pageScale="1" pageWidth="1100" pageHeight="850" math="0" shadow="0">
            <root>
                <mxCell id="0"/>
                <mxCell id="1" parent="0"/>
                <mxCell id="271" value="Giraffe Ground Computer (GGC)" style="swimlane;" vertex="1" parent="1">
                    <mxGeometry x="-914" y="359" width="375" height="302" as="geometry"/>
                </mxCell>
                <mxCell id="272" style="edgeStyle=elbowEdgeStyle;html=1;startArrow=classic;endArrow=classic;entryX=0.5;entryY=0;entryDx=0;entryDy=0;startFill=1;endFill=1;" edge="1" parent="271" source="274" target="275">
                    <mxGeometry relative="1" as="geometry"/>
                </mxCell>
                <mxCell id="273" style="edgeStyle=elbowEdgeStyle;html=1;startArrow=none;endArrow=classic;entryX=0;entryY=0.3;entryDx=0;entryDy=0;endFill=1;" edge="1" parent="271" source="274" target="277">
                    <mxGeometry relative="1" as="geometry"/>
                </mxCell>
                <UserObject label="Telemetry Server" treeRoot="1" id="274">
                    <mxCell style="whiteSpace=wrap;html=1;align=center;treeFolding=1;treeMoving=1;newEdgeStyle={&quot;edgeStyle&quot;:&quot;elbowEdgeStyle&quot;,&quot;startArrow&quot;:&quot;none&quot;,&quot;endArrow&quot;:&quot;none&quot;};fillColor=rgb(24, 20, 29);fontStyle=1" vertex="1" parent="271">
                        <mxGeometry x="58.5" y="74" width="125" height="63" as="geometry"/>
                    </mxCell>
                </UserObject>
                <UserObject label="Giraffe Ground Station Backend" treeRoot="1" id="275">
                    <mxCell style="whiteSpace=wrap;html=1;align=center;treeFolding=1;treeMoving=1;newEdgeStyle={&quot;edgeStyle&quot;:&quot;elbowEdgeStyle&quot;,&quot;startArrow&quot;:&quot;none&quot;,&quot;endArrow&quot;:&quot;none&quot;};fillColor=rgb(24, 20, 29);fontStyle=1" vertex="1" parent="271">
                        <mxGeometry x="58.5" y="195" width="125" height="63" as="geometry"/>
                    </mxCell>
                </UserObject>
                <mxCell id="276" style="edgeStyle=elbowEdgeStyle;html=1;entryX=0.75;entryY=0;entryDx=0;entryDy=0;elbow=vertical;startArrow=classic;startFill=1;" edge="1" parent="271" source="277" target="275">
                    <mxGeometry relative="1" as="geometry"/>
                </mxCell>
                <mxCell id="277" value="influxDB&lt;br&gt;" style="shape=datastore;whiteSpace=wrap;html=1;" vertex="1" parent="271">
                    <mxGeometry x="252" y="62" width="78" height="87" as="geometry"/>
                </mxCell>
                <UserObject label="Giraffe Ground Station Frontend Server" treeRoot="1" id="278">
                    <mxCell style="whiteSpace=wrap;html=1;align=center;treeFolding=1;treeMoving=1;newEdgeStyle={&quot;edgeStyle&quot;:&quot;elbowEdgeStyle&quot;,&quot;startArrow&quot;:&quot;none&quot;,&quot;endArrow&quot;:&quot;none&quot;};fillColor=rgb(24, 20, 29);fontStyle=1" vertex="1" parent="271">
                        <mxGeometry x="243" y="232" width="125" height="63" as="geometry"/>
                    </mxCell>
                </UserObject>
                <mxCell id="279" style="edgeStyle=elbowEdgeStyle;html=1;startArrow=classic;startFill=1;endArrow=none;endFill=0;" edge="1" source="281" target="278" parent="1">
                    <mxGeometry relative="1" as="geometry"/>
                </mxCell>
                <mxCell id="280" value="HTTP" style="edgeLabel;html=1;align=center;verticalAlign=middle;resizable=0;points=[];fontSize=11;fontColor=#FFFFFF;" vertex="1" connectable="0" parent="279">
                    <mxGeometry x="-0.0911" y="2" relative="1" as="geometry">
                        <mxPoint x="2" y="-1" as="offset"/>
                    </mxGeometry>
                </mxCell>
                <mxCell id="281" value="Client(s)" style="rounded=1;whiteSpace=wrap;html=1;" vertex="1" parent="1">
                    <mxGeometry x="-850.5" y="705" width="120" height="60" as="geometry"/>
                </mxCell>
                <mxCell id="282" style="edgeStyle=elbowEdgeStyle;html=1;startArrow=classic;endArrow=classic;startFill=1;endFill=1;" edge="1" source="275" target="281" parent="1">
                    <mxGeometry relative="1" as="geometry"/>
                </mxCell>
                <mxCell id="283" value="Web Socket/HTTP" style="edgeLabel;html=1;align=center;verticalAlign=middle;resizable=0;points=[];fontSize=11;fontColor=#FFFFFF;" vertex="1" connectable="0" parent="282">
                    <mxGeometry x="0.3063" relative="1" as="geometry">
                        <mxPoint x="-3" y="5" as="offset"/>
                    </mxGeometry>
                </mxCell>
                <mxCell id="284" style="edgeStyle=elbowEdgeStyle;html=1;entryX=1;entryY=0.25;entryDx=0;entryDy=0;" edge="1" source="285" target="275" parent="1">
                    <mxGeometry relative="1" as="geometry"/>
                </mxCell>
                <mxCell id="285" value="aprs.fi" style="rounded=1;whiteSpace=wrap;html=1;" vertex="1" parent="1">
                    <mxGeometry x="-515" y="521" width="120" height="60" as="geometry"/>
                </mxCell>
            </root>
        </mxGraphModel>
    </diagram>
</mxfile>